HIERARCHY
ROOT Hips
{
	OFFSET 0.000000 0.000000 0.000000
	CHANNELS 6 Xposition Yposition Zposition Zrotation Yrotation Xrotation 
	JOINT LHipJoint
	{
		OFFSET 0.000000 0.000000 0.000000
		CHANNELS 3 Zrotation Yrotation Xrotation
		JOINT LeftUpLeg
		{
			OFFSET 1.363060 -1.794630 0.839290
			CHANNELS 3 Zrotation Yrotation Xrotation
			JOINT LeftLeg
			{
				OFFSET 2.448110 -6.726130 0.000000
				CHANNELS 3 Zrotation Yrotation Xrotation
				JOINT LeftFoot
				{
					OFFSET 2.562200 -7.039590 0.000000
					CHANNELS 3 Zrotation Yrotation Xrotation
					JOINT LeftToeBase
					{
						OFFSET 0.157640 -0.433110 2.322550
						CHANNELS 3 Zrotation Yrotation Xrotation
						End Site
						{
							OFFSET 0.000000 0.000000 0.000000
						}
					}
				}
			}
		}
	}
	JOINT RHipJoint
	{
		OFFSET 0.000000 0.000000 0.000000
		CHANNELS 3 Zrotation Yrotation Xrotation
		JOINT RightUpLeg
		{
			OFFSET -1.305520 -1.794630 0.839290
			CHANNELS 3 Zrotation Yrotation Xrotation
			JOINT RightLeg
			{
				OFFSET -2.542530 -6.985550 0.000000
				CHANNELS 3 Zrotation Yrotation Xrotation
				JOINT RightFoot
				{
					OFFSET -2.568260 -7.056230 0.000000
					CHANNELS 3 Zrotation Yrotation Xrotation
					JOINT RightToeBase
					{
						OFFSET -0.164730 -0.452590 2.363150
						CHANNELS 3 Zrotation Yrotation Xrotation
						End Site
						{
							OFFSET 0.000000 0.000000 0.000000
						}
					}
				}
			}
		}
	}
}
MOTION
Frames: 16
Frame Time: 0.008333
26.609164 16.069199 4.868800 -105.072756 -89.760345 131.012253 -13.346889 2.588577 -1.772468 -1.356079 8.338882 2.337088 -0.661767 0.177445 12.412106 1.279075 10.189127 3.590925 1.870200 0.000000 -81.715501 6.670892 -0.446818 3.636864 4.410382 7.315755 -62.273097 1.813446 -2.539832 32.119646 -0.656896 -2.724970 3.559500 -1.342100 -0.000000 -43.521900
26.393774 16.087220 4.833754 -100.060967 -89.801145 126.080267 -13.650129 2.616360 -1.730705 -0.966104 8.344920 1.549172 -0.453893 0.365851 14.386847 1.361120 10.727683 5.776878 2.321500 -0.000000 -82.178100 6.471586 -0.521494 3.515525 4.717301 7.471439 -62.106389 1.731406 -2.631172 33.623064 -0.754566 -3.021907 2.529854 -1.337401 0.000000 -43.183600
26.179765 16.109109 4.797172 -95.833600 -89.803299 121.903457 -13.921302 2.624550 -1.706747 -0.592452 8.445178 0.622646 -0.250001 0.544133 16.578566 1.468558 11.296751 7.940037 2.793100 -0.000000 -81.570800 6.304891 -0.580842 3.384101 5.090598 7.568839 -61.785095 1.684860 -2.699478 34.918965 -0.837891 -3.217102 1.324599 -1.284900 0.000000 -42.996600
25.967532 16.134540 4.758901 -92.404866 -89.781778 118.500436 -14.151970 2.605190 -1.698715 -0.261241 8.612352 -0.430855 -0.057965 0.705403 18.969487 1.600561 11.914157 9.985214 3.278600 0.000001 -79.782899 6.172823 -0.631568 3.246585 5.510731 7.603261 -61.315484 1.671484 -2.747962 35.997019 -0.905820 -3.309477 0.004832 -1.191500 0.000001 -42.916500
25.757686 16.163277 4.718973 -89.751293 -89.748854 115.848032 -14.337305 2.554232 -1.705368 0.004384 8.822333 -1.598675 0.113549 0.846892 21.536829 1.752068 12.590343 11.807791 3.769400 -0.000000 -76.818900 6.074863 -0.679095 3.107274 5.957294 7.576516 -60.706277 1.687167 -2.778836 36.852054 -0.958309 -3.306831 -1.362794 -1.069000 0.000000 -42.893300
25.550557 16.195090 4.677490 -87.860547 -89.713133 113.936148 -14.473906 2.472215 -1.726260 0.185238 9.054417 -2.868354 0.257500 0.970276 24.252077 1.914960 13.327606 13.310715 4.253500 0.000000 -72.833100 6.010433 -0.727170 2.970701 6.409814 7.494761 -59.969493 1.726635 -2.793873 37.484104 -0.996118 -3.223484 -2.713166 -0.930900 -0.000000 -42.880400
25.346089 16.229873 4.634961 -86.704283 -89.675848 112.743077 -14.563875 2.361815 -1.761565 0.275059 9.294514 -4.231392 0.371208 1.080585 27.080750 2.080168 14.117540 14.422582 4.714800 0.000000 -68.135100 5.975181 -0.780467 2.842081 6.854713 7.373990 -59.117987 1.784745 -2.793666 37.891665 -1.021473 -3.082805 -3.986674 -0.791400 0.000000 -42.842800
25.144492 16.267518 4.591586 -86.334641 -89.639778 112.324090 -14.604448 2.229335 -1.811383 0.261688 9.525288 -5.675870 0.456282 1.184272 29.983041 2.240424 14.950823 15.107826 5.137299 -0.000000 -63.133000 5.970561 -0.838711 2.725368 7.271966 7.225615 -58.168587 1.855240 -2.779937 38.085375 -1.036454 -2.905712 -5.140201 -0.660500 0.000000 -42.760800
24.945698 16.308075 4.547927 -86.768459 -89.598616 112.699461 -14.597615 2.079938 -1.875548 0.148776 9.735158 -7.193548 0.518390 1.287299 32.919734 2.390724 15.807658 15.365810 5.502400 -0.000000 -58.227200 5.994579 -0.902306 2.624074 7.652815 7.069167 -57.133888 1.933267 -2.753127 38.070893 -1.044290 -2.718125 -6.142432 -0.545600 0.000000 -42.630999
24.749472 16.351641 4.504406 -88.035229 -89.545288 113.904828 -14.544337 1.919293 -1.952263 -0.059305 9.911799 -8.776296 0.564649 1.393462 35.852257 2.528767 16.667073 15.222981 5.793100 -0.000000 -53.741100 6.047223 -0.969514 2.540980 7.990164 6.922297 -56.025967 2.014629 -2.713543 37.857277 -1.048128 -2.542121 -6.979613 -0.450300 -0.000000 -42.465399
24.555702 16.398304 4.461446 -90.133150 -89.469857 115.942838 -14.446229 1.752636 -2.038917 -0.352910 10.045774 -10.416384 0.601607 1.504631 38.743850 2.654277 17.507225 14.725408 5.995900 -0.000000 -49.903700 6.128477 -1.036697 2.477458 8.281554 6.801841 -54.853111 2.096195 -2.660652 37.453126 -1.050986 -2.395882 -7.652288 -0.375100 0.000000 -42.284200
24.364005 16.448124 4.419381 -92.999029 -89.361403 118.754143 -14.306051 1.585194 -2.133666 -0.717647 10.134567 -12.110222 0.632608 1.622391 41.566127 2.766071 18.294220 13.903661 6.090100 -0.000000 -46.611700 6.237478 -1.098496 2.433006 8.530124 6.723067 -53.620448 2.175766 -2.592930 36.866539 -1.055487 -2.292640 -8.171737 -0.318500 0.000000 -42.112700
24.174174 16.501185 4.378375 -96.507241 -89.212422 122.215274 -14.128793 1.422789 -2.231349 -1.140167 10.171709 -13.847990 0.660470 1.746263 44.280068 2.866312 19.016544 12.831507 6.078300 -0.000000 -44.015699 6.371734 -1.149168 2.406024 8.740369 6.696039 -52.328014 2.251823 -2.507818 36.104759 -1.063409 -2.238783 -8.557506 -0.277700 0.000000 -41.973400
23.985700 16.557395 4.338571 -100.442594 -89.018901 126.113122 -13.922624 1.270502 -2.328521 -1.605522 10.157654 -15.623624 0.684621 1.876734 46.855763 2.954650 19.650670 11.549521 5.954600 -0.000000 -41.899301 6.525523 -1.183534 2.392817 8.918950 6.725566 -50.973422 2.323512 -2.402145 35.173451 -1.075818 -2.235835 -8.831801 -0.249800 -0.000000 -41.881800
23.798369 16.616600 4.299892 -104.547198 -88.785265 130.190267 -13.698507 1.132013 -2.418942 -2.101998 10.087811 -17.425237 0.704967 2.012256 49.257151 3.032750 20.192616 10.128174 5.733900 -0.000000 -40.248601 6.690326 -1.199449 2.389542 9.071080 6.808213 -49.551742 2.390497 -2.272952 34.077255 -1.092873 -2.280200 -9.017031 -0.232099 0.000000 -41.843200
23.611799 16.678531 4.262182 -108.565515 -88.523082 134.188658 -13.467959 1.007847 -2.497376 -2.620093 9.958378 -19.241060 0.721038 2.150496 51.454695 3.101511 20.639889 8.623915 5.432400 0.000000 -38.967200 6.856287 -1.197840 2.391686 9.200123 6.932587 -48.057221 2.453079 -2.118444 32.819184 -1.113901 -2.364744 -9.132109 -0.222300 0.000001 -41.851100
